HIERARCHY
ROOT simHips
{
  OFFSET 99.7427 99.8268 -3.65705
  CHANNELS 6 Xposition Yposition Zposition Zrotation Xrotation Yrotation
  JOINT simSpine
  {
    OFFSET -0.000355721 21.3001 -0.016921
    CHANNELS 3 Zrotation Xrotation Yrotation
    JOINT simLeftArm
    {
      OFFSET 13.5181 21.3012 0
      CHANNELS 3 Zrotation Xrotation Yrotation
      JOINT simLeftForeArm
      {
        OFFSET 24.5783 0 0
        CHANNELS 3 Zrotation Xrotation Yrotation
        JOINT simLeftHand
        {
          OFFSET 24.5783 0 0
          CHANNELS 3 Zrotation Xrotation Yrotation
          End Site
          {
            OFFSET 7.32568 1.52588e-05 0.0169305
          }
        }
      }
    }
    JOINT simHead
    {
      OFFSET 0 27.4458 -0.00489235
      CHANNELS 3 Zrotation Xrotation Yrotation
      End Site
      {
        OFFSET 0 0 0
      }
    }
    JOINT simRightArm
    {
      OFFSET -13.5174 21.3012 0
      CHANNELS 3 Zrotation Xrotation Yrotation
      JOINT simRightForeArm
      {
        OFFSET -24.5783 0 0
        CHANNELS 3 Zrotation Xrotation Yrotation
        JOINT simRightHand
        {
          OFFSET -24.5783 0 0
          CHANNELS 3 Zrotation Xrotation Yrotation
          End Site
          {
            OFFSET -7.32568 1.52588e-05 0.0169305
          }
        }
      }
    }
  }
  JOINT simRightUpLeg
  {
    OFFSET -8.44614 -9.41038 0.835684
    CHANNELS 3 Zrotation Xrotation Yrotation
    JOINT simRightLeg
    {
      OFFSET 0 -40.9639 0
      CHANNELS 3 Zrotation Xrotation Yrotation
      JOINT simRightFoot
      {
        OFFSET 0 -40.9639 0
        CHANNELS 3 Zrotation Xrotation Yrotation
        End Site
        {
          OFFSET 0.50614 -9.67405 14.6709
        }
      }
    }
  }
  JOINT simLeftUpLeg
  {
    OFFSET 8.44614 -9.41038 0.835684
    CHANNELS 3 Zrotation Xrotation Yrotation
    JOINT simLeftLeg
    {
      OFFSET 0 -40.9639 0
      CHANNELS 3 Zrotation Xrotation Yrotation
      JOINT simLeftFoot
      {
        OFFSET 0 -40.9639 0
        CHANNELS 3 Zrotation Xrotation Yrotation
        End Site
        {
          OFFSET -0.50614 -9.67405 14.6709
        }
      }
    }
  }
}
MOTION
Frames:	17
Frame Time:	0.0333333
161.195 102.422 -22.5593 -23.626 4.07298 -17.9672 -8.32802 26.337 -18.9744 -11.6428 9.85155 -63.6784 23.5381 -15.0578 -82.686 17.4049 -14.1761 -5.71149 15.6177 4.3165 -14.9602 25.587 36.6604 36.5734 -29.2681 -20.765 71.1338 6.248 -14.315 12.1777 -21.6836 -55.2751 -20.4367 139.349 61.8203 -125.84 19.2546 -14.7604 15.1769 27.0969 -13.2628 13.3556 -1.36581 4.46736 0.138425 -10.9139 16.331 -6.08562 
160.898 104.033 -22.2939 -27.2953 5.34062 -16.1743 -4.72391 29.188 -20.546 -15.8512 -7.31578 -62.8858 21.6252 -10.991 -70.3267 20.6198 -14.2477 -4.04878 20.0009 3.39841 -13.2276 25.0882 23.842 24.5307 -25.5692 -13.66 56.7122 2.88191 -16.643 11.2563 -44.6907 -66.873 -45.4888 149.633 53.6702 -134.595 19.6602 -17.8575 15.7984 34.0669 -14.3169 13.1978 -0.380541 4.48072 -0.423956 -24.0122 19.5221 -4.10918 
160.23 104.707 -21.1638 -32.1548 7.71434 -14.4245 1.2644 29.4472 -20.6943 -12.8072 -17.1133 -52.1246 20.7925 -9.68171 -66.0194 24.9303 -23.138 1.37351 26.1354 0.283706 -12.8684 20.794 19.8325 14.7061 -18.4965 -6.23315 38.0023 -0.691075 -11.602 11.2473 -81.7769 -69.3954 -77.214 155.175 46.8172 -138.536 23.4759 -17.237 20.6538 43.3746 -14.4645 14.4364 -0.0748775 0.870894 -0.267972 -19.5263 18.9732 -0.221794 
159.93 104.537 -19.0529 -38.9695 9.30778 -11.0701 11.4968 29.5371 -21.2266 -6.34825 -17.7548 -30.256 21.9548 -11.5191 -71.9946 24.3468 -22.2413 1.86784 31.7219 -5.79147 -14.4336 20.075 21.6723 2.50422 -11.3155 -2.14302 22.4041 -1.57306 -13.2348 9.67212 -95.0026 -61.8609 -75.1666 155.937 45.6375 -138.621 26.1827 -12.0186 23.8669 54.417 -15.2464 18.2014 -0.0612719 0.209336 -0.391197 -17.2494 25.2328 -1.31327 
159.852 103.506 -16.3561 -44.7412 9.75756 -6.56532 21.0888 28.5271 -21.7558 -5.09474 -7.77131 -5.92278 23.4282 -14.7434 -81.7655 22.7856 -19.4775 4.70951 35.5073 -13.0449 -20.8077 25.5397 21.5789 -12.3498 -6.91434 -0.75874 13.5282 0.510882 -16.6121 8.7633 -86.8349 -51.2771 -49.2747 145.921 57.0246 -130.695 26.6126 -4.99199 19.2767 62.6632 -16.3711 21.4225 -0.00593332 0.0884717 -0.527398 -17.3156 30.3276 -1.00209 
159.524 102.15 -13.2683 -46.1675 10.2151 -1.32663 24.1955 25.1935 -21.497 -14.7514 5.03071 17.5271 24.3779 -18.4611 -92.4577 20.7137 -19.3677 9.34483 40.7331 -19.0317 -30.049 33.1856 14.305 -25.0302 -4.2134 -0.264965 8.2078 2.12356 -19.5459 8.28276 -75.2931 -34.5355 -26.2795 77.5543 72.4137 -66.1709 29.6086 8.97824 11.3698 63.598 -18.6233 24.1705 -0.0119496 1.31652e-05 -0.485883 -17.6286 24.352 -6.75648 
158.465 101.456 -9.95941 -45.1654 9.83809 4.10905 21.0377 22.3741 -19.8343 -30.832 9.76301 37.9716 24.6012 -20.8643 -99.285 16.6235 -15.3475 8.10063 48.4008 -21.9193 -37.758 40.3374 -3.36385 -34.9295 -2.42797 -0.0787275 4.71975 2.5341 -30.2755 7.30735 -62.4014 -6.85331 -4.28351 9.53763 31.4926 -4.02784 26.6413 7.76114 5.65415 62.8828 -22.9133 21.0823 -1.52046 3.91631 -0.53264 -16.8518 15.8104 -7.0543 
155.699 101.966 -7.09153 -43.2226 10.6387 9.56434 13.5882 17.5562 -13.6901 -44.1812 11.9118 47.0907 24.6093 -21.3874 -100.778 13.1757 -15.058 8.59729 50.7512 -21.6136 -40.8987 49.0037 -23.7911 -45.6644 0.202409 -0.00146663 0.000189399 8.81558 -53.8382 14.7856 -59.9317 10.8215 31.7664 1.16811 3.79826 -0.00253996 11.797 -3.68256 -2.62748 61.4581 -27.2901 20.2407 -2.06016 4.91994 -0.447316 -15.5236 15.8968 -8.35687 
154.996 101.994 -6.62815 -45.6579 9.99006 10.0764 13.4641 19.498 -5.41842 -55.5219 14.8205 43.9125 24.6044 -21.8188 -102.013 12.6545 -13.627 7.98018 41.6528 -23.6138 -34.5297 69.4606 -25.0983 -34.3187 3.16732 4.32097 -6.97564e-05 -7.56051 -75.4626 -8.81722 -51.3472 11.6715 12.2302 0.473485 1.67853 0.420976 37.1996 -1.45502 20.7519 63.512 -27.3564 15.3518 -2.02095 4.79626 -0.260896 -11.8425 15.6188 -3.19503 
155.237 102.118 -7.91138 -44.3211 7.90416 4.1189 9.40416 24.1064 -1.33705 -71.8225 20.5741 35.4653 24.6021 -20.918 -99.4381 12.7784 -15.4964 8.07065 30.8488 -16.2628 -33.8765 80.3381 -9.00547 -19.2805 2.77964 0.106416 -1.7726e-05 -19.7688 -77.9843 -19.4049 -48.9371 -2.31413 3.18117 6.20458 20.9543 -2.42889 19.4321 -4.20575 3.85545 61.0763 -21.3313 16.6562 -1.40387 3.57673 -0.239131 -9.78874 16.7719 0.829065 
154.762 101.901 -9.00068 -40.7494 4.35629 4.74758 5.72633 28.5297 -4.05775 -78.867 36.7118 23.8243 24.5974 -20.75 -98.9593 12.3155 -11.8186 5.70522 25.9209 -10.0986 -39.3961 76.9914 -3.91999 -9.27753 -2.70201 -0.100117 5.25423 5.63604 -62.5049 8.746 -47.8742 -16.0849 2.32387 22.3126 53.541 -14.6575 22.7145 -10.2535 12.4416 55.8263 -20.0605 14.8504 -0.839452 2.16925 -0.194462 -9.83342 18.175 -0.401369 
153.966 100.711 -10.4062 -38.1684 4.46928 5.99111 4.99625 30.6045 -8.12704 -65.8248 48.7244 1.02244 24.6057 -21.0553 -99.8294 10.7999 -7.78239 2.83947 22.2842 -10.0439 -43.649 66.2797 5.57499 0.366112 -10.7892 -1.93737 21.3244 -1.51885 -41.1299 7.3703 -45.5374 -29.8788 -3.84473 62.2086 71.0576 -51.8798 28.1578 -10.1177 24.3756 53.0427 -21.828 15.4676 -0.488461 1.07246 -0.110893 -10.227 19.9628 -1.68033 
153.006 99.0491 -11.8323 -34.3931 6.4677 4.29131 2.57491 30.992 -10.2712 -57.982 44.3104 -7.73779 24.5674 -22.6605 -104.436 9.94953 -7.36669 2.38887 18.4338 -12.3099 -43.9225 50.1974 10.7582 11.1142 -17.4803 -5.48241 35.6782 0.788317 -34.075 11.1398 -44.5068 -44.4654 -13.4106 100.426 72.0333 -88.9367 25.596 -12.2756 20.9673 50.3819 -22.992 17.6034 -0.488217 0.988776 -0.0699154 -10.5781 21.1108 -0.964331 
151.781 97.2598 -12.8539 -28.0806 5.45382 2.8329 -1.08086 33.2307 -9.35503 -53.4008 36.187 -7.53525 24.4316 -23.9676 -108.245 12.4127 -14.7208 4.89581 12.0588 -16.5485 -45.0703 37.9299 7.94283 18.4898 -22.8681 -10.2646 48.9112 3.47693 -33.4374 12.7506 -38.2736 -50.8225 -13.7325 100.044 72.0895 -88.6682 23.4078 -11.1203 20.5467 47.4704 -25.4463 18.5338 -4.22564 9.02638 0.669288 -8.45208 16.7546 -1.20782 
150.159 95.1236 -13.2128 -19.0669 3.12998 2.20593 -6.96626 34.3989 -2.14484 -48.9874 32.4048 -9.58783 24.5118 -23.313 -106.329 10.794 -15.5842 5.04645 2.69739 -15.885 -49.1928 31.8348 5.98942 18.1438 -27.4996 -16.86 63.4272 1.76765 -34.7995 10.9169 -30.8601 -49.5597 -6.94192 75.4318 72.3603 -64.9606 18.3074 -5.9725 15.2778 41.6392 -28.8813 18.2104 -7.92777 20.7251 2.09817 -7.04788 10.8837 -1.28969 
148.102 92.6655 -12.7642 -10.5846 1.44409 2.70412 -12.7401 33.1244 6.49894 -48.6124 36.7774 -15.6795 24.5985 -22.0626 -102.713 13.852 -17.2652 9.5345 -2.0043 -10.4528 -50.7117 30.7206 11.7889 17.9962 -29.9456 -22.7605 74.9544 3.95984 -36.2716 12.7508 -24.6297 -44.0765 0.457962 44.415 67.2654 -35.0614 15.0931 6.1946 5.14487 35.8324 -30.6055 17.9373 -11.4194 28.1964 3.87653 -6.30752 6.41304 -2.3358 
146.029 89.8169 -12.1438 -4.61517 -0.0300942 3.63759 -15.7636 31.5363 12.0454 -51.5097 42.7183 -23.0607 24.5375 -23.0452 -105.55 14.9641 -15.9743 8.64886 -3.82338 -6.22137 -50.787 35.7089 24.9455 23.925 -30.37 -24.3172 77.9074 7.04967 -31.4898 15.0705 -19.807 -40.0069 6.61181 33.692 62.6391 -25.1287 13.7041 1.799 -4.01445 32.8114 -32.6595 16.7093 -15.2367 35.2896 6.21231 -6.31709 2.24282 -2.26652 
